Coordinates
version=1
nRows=13
nColumns=18
inDegrees=yes

Units are S.I. units (second, meters, Newtons, ...)
If the header above contains a line with 'inDegrees', this indicates whether rotational values are in degrees (yes) or radians (no).

endheader
time	ground_thorax_rot_x	ground_thorax_rot_y	ground_thorax_rot_z	ground_thorax_tx	ground_thorax_ty	ground_thorax_tz	clav_prot	clav_elev	scapula_abduction	scapula_elevation	scapula_upward_rot	scapula_winging	plane_elv	shoulder_elv	axial_rot	elbow_flexion	pro_sup
      3.73000000	      1.46987513	     -7.87924347	    -11.12451298	      0.00000000	      0.00000000	      0.00000000	    -19.67398045	     -4.07532239	     -7.40641075	     -3.73415597	     13.16288079	      5.03500039	    -22.89358626	     16.02883684	     40.45336998	      0.00000000	     34.32000000
      3.74000000	      1.52587537	     -7.87960342	    -11.17230033	      0.00000000	      0.00000000	      0.00000000	    -19.67168442	     -4.12462395	     -7.37145330	     -3.78055722	     13.19605819	      5.04173033	    -22.87788276	     16.04280378	     40.47039971	      0.00000000	     34.32000000
      3.75000000	      1.47758285	     -7.99326841	    -11.26885415	      0.00000000	      0.00000000	      0.00000000	    -19.61531263	     -4.21704822	     -7.21951697	     -3.86219626	     13.24896120	      5.04903673	    -23.01327214	     16.05466668	     40.10497644	      0.00000000	     34.32000000
      3.76000000	      1.43096463	     -8.00905545	    -11.27400462	      0.00000000	      0.00000000	      0.00000000	    -19.61406702	     -4.25385159	     -7.26732408	     -3.86364105	     13.14755555	      5.08591154	    -22.69557052	     16.15289744	     38.97050940	      0.00000000	     34.32000000
      3.77000000	      1.11411367	     -8.01142676	    -11.39888174	      0.00000000	      0.00000000	      0.00000000	    -19.48599080	     -4.69760269	     -7.37667766	     -3.99541055	     12.38491842	      5.39971259	    -20.61476409	     17.31290077	     28.98757766	      0.00000000	     34.32000000
      3.78000000	      1.67744770	     -8.25841724	    -11.18657660	      0.00000000	      0.00000000	      0.00000000	    -19.31158172	     -3.90101538	     -6.72915471	     -3.62009130	     13.31117545	      4.89656178	    -22.00813889	     16.44173286	     34.83508618	      0.00000000	     34.32000000
      3.79000000	      1.68332001	     -8.20255120	    -11.17438682	      0.00000000	      0.00000000	      0.00000000	    -19.32489899	     -3.90773376	     -6.76102175	     -3.62124464	     13.29334430	      4.90502473	    -21.99256656	     16.43055898	     34.86549533	      0.00000000	     34.32000000
      3.80000000	      1.43773863	     -7.77034590	    -11.25010448	      0.00000000	      0.00000000	      0.00000000	    -19.71183507	     -4.26116571	     -7.48604307	     -3.85228137	     13.06258600	      5.12275255	    -22.52286357	     16.24680916	     36.53451364	      0.00000000	     34.32000000
      3.81000000	      1.43895995	     -7.80653904	    -11.27813420	      0.00000000	      0.00000000	      0.00000000	    -19.70778440	     -4.25758424	     -7.48290603	     -3.84776043	     13.05693455	      5.12241396	    -22.51084687	     16.26055533	     36.55106254	      0.00000000	     34.32000000
      3.82000000	      1.56480826	     -8.10647880	    -11.22779177	      0.00000000	      0.00000000	      0.00000000	    -19.51240353	     -4.06526995	     -7.05314713	     -3.75093321	     13.28913995	      4.97884293	    -22.76077184	     16.11136639	     38.40299787	      0.00000000	     34.32000000
      3.83000000	      1.54192845	     -8.14762769	    -11.22548451	      0.00000000	      0.00000000	      0.00000000	    -19.46565551	     -4.05236480	     -6.96406259	     -3.74311408	     13.30679945	      4.96418109	    -23.11240553	     15.87521286	     40.82934831	      0.00000000	     34.32000000
      3.84000000	      1.55623400	     -8.19592233	    -11.29916943	      0.00000000	      0.00000000	      0.00000000	    -19.48475891	     -4.02831003	     -6.94147135	     -3.75393596	     13.41370097	      4.93252760	    -23.34686011	     15.51249151	     44.02587558	      0.00000000	     34.32000000
      3.85000000	      1.54852440	     -8.20519746	    -11.28060948	      0.00000000	      0.00000000	      0.00000000	    -19.48193524	     -4.02500396	     -6.96179409	     -3.74001371	     13.37125909	      4.94168844	    -23.30351460	     15.53706139	     43.95026559	      0.00000000	     34.32000000
